<?xml version="1.0" encoding="utf-8"?>
<!-- Generator: Adobe Illustrator 18.1.0, SVG Export Plug-In . SVG Version: 6.00 Build 0)  -->
<!DOCTYPE svg PUBLIC "-//W3C//DTD SVG 1.1//EN" "http://www.w3.org/Graphics/SVG/1.1/DTD/svg11.dtd">
<svg version="1.1" id="Layer_1" xmlns="http://www.w3.org/2000/svg" xmlns:xlink="http://www.w3.org/1999/xlink" x="0px" y="0px"
	 viewBox="26 115 384 384" enable-background="new 26 115 384 384" xml:space="preserve">
<path d="M26,307c0-34.8,8.6-67,25.8-96.4s40.5-52.7,69.9-69.9S183.2,115,218,115s67,8.6,96.4,25.8s52.7,40.5,69.9,69.9
	S410,272.2,410,307s-8.6,67-25.8,96.4s-40.5,52.7-69.9,69.9S252.8,499,218,499s-67-8.6-96.4-25.8s-52.7-40.5-69.9-69.9
	S26,341.8,26,307z M82,307c0,24.7,6.1,47.4,18.2,68.2s28.7,37.3,49.5,49.5S193.3,443,218,443s47.4-6.1,68.2-18.2
	c20.8-12.2,37.3-28.7,49.5-49.5S354,331.7,354,307s-6.1-47.4-18.2-68.2s-28.7-37.3-49.5-49.5C265.4,177.1,242.7,171,218,171
	s-47.4,6.1-68.2,18.2s-37.3,28.7-49.5,49.5S82,282.3,82,307z M122,331v-48c0-2.2,0.8-4,2.4-5.6s3.5-2.4,5.6-2.4h88v-48
	c0-2.3,0.8-4.2,2.2-5.8s3.4-2.2,5.8-2.2c2,0,4,0.8,6,2.5l79.8,79.8c1.5,1.5,2.2,3.4,2.2,5.8s-0.8,4.2-2.2,5.8l-80,80
	c-1.5,1.5-3.4,2.2-5.8,2.2c-2.2,0-4-0.8-5.6-2.4s-2.4-3.5-2.4-5.6v-48h-88c-2.2,0-4-0.8-5.6-2.4S122,333.2,122,331z"/>
</svg>
