<?xml version="1.0" encoding="utf-8"?>
<!-- Generator: Adobe Illustrator 18.1.0, SVG Export Plug-In . SVG Version: 6.00 Build 0)  -->
<!DOCTYPE svg PUBLIC "-//W3C//DTD SVG 1.1//EN" "http://www.w3.org/Graphics/SVG/1.1/DTD/svg11.dtd">
<svg version="1.1" id="Layer_1" xmlns="http://www.w3.org/2000/svg" xmlns:xlink="http://www.w3.org/1999/xlink" x="0px" y="0px"
	 viewBox="0 0 37 106.1" enable-background="new 0 0 37 106.1" xml:space="preserve">
<path fill="#F4F2CB" d="M36.5,73c0-9.9-7.1-15.2-14.5-19.9c7.4-4.7,14.5-10,14.5-19.9c0-9.9-7.1-15.2-14.5-19.9
	c4-2.5,7.8-5.3,10.5-8.8c0.6-0.8,0.5-2-0.4-2.7c-0.8-0.6-2-0.5-2.7,0.4c-2.6,3.5-6.7,6.1-11,8.8c-4.3-2.7-8.4-5.4-11-8.8
	c-0.6-0.8-1.8-1-2.7-0.4c-0.8,0.6-1,1.8-0.4,2.7C7.1,8,11,10.7,14.9,13.2C7.5,18,0.5,23.3,0.5,33.2c0,9.9,7,15.2,14.4,19.9
	C7.5,57.8,0.5,63.1,0.5,73c0,9.9,7,15.2,14.4,19.9c-3.9,2.5-7.8,5.2-10.5,8.8c-0.6,0.8-0.5,2,0.4,2.7c0.3,0.3,0.8,0.4,1.2,0.4
	c0.6,0,1.1-0.3,1.5-0.7c2.6-3.5,6.7-6.1,11-8.8c4.3,2.7,8.4,5.4,11,8.8c0.4,0.5,0.9,0.7,1.5,0.7c0.4,0,0.8-0.1,1.2-0.4
	c0.8-0.6,1-1.8,0.4-2.7c-2.7-3.5-6.5-6.2-10.5-8.8C29.4,88.2,36.5,82.9,36.5,73z M29.4,64.6c1.7,2.2,2.9,3.9,3.1,7h-28
	c0.2-3.1,1.3-4.7,3.1-7H29.4z M9.4,61.6c2.5-2.5,5.7-4.1,9.1-6.3c3.4,2.1,6.6,3.8,9.1,6.3H9.4z M32.5,74.6c-0.2,3.1-1.3,4.8-3.1,7
	H7.5c-1.7-2.2-2.9-3.9-3.1-7H32.5z M27.6,84.6c-3.1,2.2-5.7,4.2-9.1,6c-3.5-2-6.1-3.8-9.1-6H27.6z M29.4,24.6c1.7,2.2,2.9,3.9,3.1,7
	h-28c0.2-3.1,1.3-4.8,3.1-7H29.4z M9.4,21.5c2.7-2.4,5.4-4.1,9.1-6c3.7,1.9,6.6,3.6,9.1,6H9.4z M32.5,34.5c-0.2,3.1-1.3,4.8-3.1,7
	H7.5c-1.7-2.2-2.9-3.9-3.1-7H32.5z M27.6,44.6c-2.5,2.5-5.2,3.9-9.1,6c-3.9-2.1-6.4-3.3-9.1-6H27.6z"/>
</svg>
