<?xml version="1.0" encoding="utf-8"?>
<!-- Generator: Adobe Illustrator 18.1.1, SVG Export Plug-In . SVG Version: 6.00 Build 0)  -->
<!DOCTYPE svg PUBLIC "-//W3C//DTD SVG 1.1//EN" "http://www.w3.org/Graphics/SVG/1.1/DTD/svg11.dtd">
<svg version="1.1" id="Layer_1" xmlns="http://www.w3.org/2000/svg" xmlns:xlink="http://www.w3.org/1999/xlink" x="0px" y="0px"
	 viewBox="0 0 393 355" enable-background="new 0 0 393 355" xml:space="preserve">
<path fill="#F1592A" d="M378.7,154.1L237.8,13c-0.9-1-1.8-1.9-2.8-2.8L233.8,9c0,0,0,0.1,0,0.2C227,3.5,218.2,0,208.6,0h-13.3h-142
	H39.9C18.1,0,0,17.9,0,39.7c0,14.3,7.8,26.8,18.8,33.8V176c0,7,2.2,13.6,6,19h0l0,0c2.3,3.4,5.3,6.3,8.7,8.7l136.8,136.9
	c6.3,8.7,16.6,14.4,28,14.4h142c18.7,0,33.5-15.3,33.5-34V218.5c12-7,19.2-19.6,19.2-33.8C393,172.4,387.4,161.4,378.7,154.1z
	 M273.2,114.5c0,4.1-3.4,7.5-7.5,7.5h-76c-4.1,0-7.5-3.4-7.5-7.5s3.4-7.5,7.5-7.5h76C269.9,107,273.2,110.4,273.2,114.5z
	 M116.2,48.5c0-4.1,3.4-7.5,7.5-7.5h76c4.1,0,7.5,3.4,7.5,7.5s-3.4,7.5-7.5,7.5h-76C119.6,56,116.2,52.6,116.2,48.5z M150.2,81.5
	c0-4.1,3.4-7.5,7.5-7.5h76c4.1,0,7.5,3.4,7.5,7.5s-3.4,7.5-7.5,7.5h-76C153.6,89,150.2,85.6,150.2,81.5z M366.2,205.5l-7.4,4.3V321
	c0,10.5-8.3,19-18.5,19h-142c-10.6,0-19.5-8.7-19.5-19V210.2l-7-4.4c-7.3-4.6-11.8-12.7-11.8-21.2c0-13.4,11.4-24.7,24.9-24.7h168.7
	c13.5,0,24.4,11.1,24.4,24.7C378,193.5,373.7,201.2,366.2,205.5z"/>
</svg>
