<?xml version="1.0" encoding="utf-8"?>
<!-- Generator: Adobe Illustrator 18.1.1, SVG Export Plug-In . SVG Version: 6.00 Build 0)  -->
<!DOCTYPE svg PUBLIC "-//W3C//DTD SVG 1.1//EN" "http://www.w3.org/Graphics/SVG/1.1/DTD/svg11.dtd">
<svg version="1.1" id="Layer_1" xmlns="http://www.w3.org/2000/svg" xmlns:xlink="http://www.w3.org/1999/xlink" x="0px" y="0px"
	 viewBox="0 0 408 370" enable-background="new 0 0 408 370" xml:space="preserve">
<path fill="#F4F2CA" d="M348.5,370h-142c-12.9,0-25.5-6.5-33.8-17.5L36.8,215.8c-4.3-3.1-7.5-6.2-10-9.8l-0.2-0.3
	c-4.5-7.2-8.7-15-8.7-23.8V83.4C6.5,74.6,0,61.3,0,46.4C0,20.8,21.6,0,48.2,0h168.7c11.6,0,22,3.5,29.9,10.1l4.2,3.3l0.3,0.3
	L392,154.5c10.2,8.6,16,21.8,16,36.1c0,15.1-7.4,29-20,37.9V327c0,11.1-3.8,21.6-10.8,29.7C369.7,365.3,359.6,370,348.5,370z
	 M39.3,197.6c1.6,2.2,3.6,4.2,6.7,6.3l0.5,0.4l0.5,0.5l137.2,137.9l0.3,0.5c5.4,7.4,13.6,11.9,22,11.9h142c11.8,0,24.5-10.7,24.5-28
	V220.2l3.7-2.2c10.2-5.9,16.3-16.2,16.3-27.3c0-10.2-3.9-19-10.9-24.8l-0.5-0.5L241,24.7l-3.8-3C232,17.3,225,15,216.8,15H48.2
	C29.9,15,15,29.1,15,46.4c0,11.1,5.3,20.9,14.5,26.7l3.5,2.2V182C33,186.9,36,192.4,39.3,197.6z"/>
<path fill="#F4F2CA" d="M214,337c-18.7,0-28-12-28-22.7v-100l-5.7-6.4l-0.6-0.4c-6-3.8-8-7.3-8-13.9c0-10.4,10.9-16.7,21.4-16.7
	h168.7c9.7,0,19.4,5.2,19.4,16.7c0,5.2-3.7,9.9-11.8,14.7L356,212v105c0,9.2-3.3,20-14.7,20H214z"/>
<g>
	<path fill="#F4F2CA" d="M208,62h-76c-4.1,0-7.5-3.4-7.5-7.5s3.4-7.5,7.5-7.5h76c4.1,0,7.5,3.4,7.5,7.5S212.1,62,208,62z"/>
	<path fill="#F4F2CA" d="M242,95h-76c-4.1,0-7.5-3.4-7.5-7.5s3.4-7.5,7.5-7.5h76c4.1,0,7.5,3.4,7.5,7.5S246.1,95,242,95z"/>
	<path fill="#F4F2CA" d="M274,128h-76c-4.1,0-7.5-3.4-7.5-7.5s3.4-7.5,7.5-7.5h76c4.1,0,7.5,3.4,7.5,7.5S278.1,128,274,128z"/>
</g>
</svg>
